<svg aria-hidden="true" style="position:absolute;width:0;height:0;overflow:hidden" xmlns="http://www.w3.org/2000/svg">
  <defs>
    <symbol id="icon-twitter" viewBox="0 0 32 32">
      <path d="M24.325 3h4.411L19.1 14.013 30.436 29H21.56l-6.952-9.089L6.653 29H2.24l10.307-11.78L1.672 3h9.101l6.284 8.308zm-1.548 23.36h2.444L9.445 5.501H6.822z"/>
    </symbol>
    <symbol id="icon-prod" viewBox="0 0 32 32">
      <path d="M15.373 13.835a5.895 5.895 0 0 1-1.345-3.751c0-4.941 5.921-9.877 11.842-9.877a5.923 5.923 0 0 1 5.921 5.922c0 5.922-4.934 11.845-9.881 11.845a5.887 5.887 0 0 1-3.75-1.345L3.579 31.213a1.977 1.977 0 0 1-2.794-2.795l14.587-14.584z"/>
    </symbol>
    <symbol id="icon-price" viewBox="0 0 32 32">
      <path d="M16 .762C7.619.762.762 7.619.762 16S7.619 31.238 16 31.238 31.238 24.381 31.238 16 24.381.762 16 .762zm0 27.428C9.295 28.19 3.81 22.704 3.81 16S9.296 3.809 16 3.809c6.705 0 12.191 5.486 12.191 12.191S22.705 28.19 16 28.19z"/>
      <path d="M17.981 14.476h-3.962c-.762 0-1.371-.61-1.371-1.371s.61-1.371 1.371-1.371h5.638c.914 0 1.524-.61 1.524-1.524s-.61-1.524-1.524-1.524h-2.133V7.315c0-.914-.61-1.524-1.524-1.524s-1.524.61-1.524 1.524v1.371h-.457c-2.438 0-4.419 1.981-4.419 4.419s1.981 4.419 4.419 4.419h3.809c.762 0 1.371.61 1.371 1.371s-.61 1.371-1.371 1.371H12.19c-.914 0-1.524.61-1.524 1.524s.61 1.524 1.524 1.524h2.286v1.371c0 .914.61 1.524 1.524 1.524s1.524-.61 1.524-1.524v-1.371h.457c2.438 0 4.419-1.981 4.419-4.419s-1.981-4.419-4.419-4.419z"/>
    </symbol>
    <symbol id="icon-taste" viewBox="0 0 32 32">
      <path d="m13.511.472 8.602 8.613.091-.091a.982.982 0 0 1 1.354-.015l.998.998c.349.349.36.88.095 1.25l-.005.008-.163.219 7.04 7.04a1.593 1.593 0 0 1 0 2.263L20.746 31.534a1.593 1.593 0 0 1-2.263 0l-5.082-5.082a.952.952 0 0 1-.7.362.964.964 0 0 1-.736-.282l-2.971-2.971a.98.98 0 0 1-.015-1.354l.007-.008.088-.087L.472 13.51a1.593 1.593 0 0 1 0-2.263L11.249.47a1.593 1.593 0 0 1 2.263 0v.001zm7.522 9.691-2.007-2.006a.676.676 0 0 0-.972 0l-4.091 4.091a.686.686 0 0 0-.204.491.694.694 0 0 0 .204.491l1.999 1.999.697-.697-1.789-1.789 3.669-3.68 1.793 1.799.701-.701zm-5.801 5.797-2.005-2.005a.676.676 0 0 0-.972 0l-4.103 4.103a.676.676 0 0 0 0 .971l2.002 2.002.704-.704-1.794-1.787 3.68-3.669 1.787 1.786.699-.698zM7.797 7.078l4.091 4.091a.667.667 0 0 0 .971-.011l4.091-4.091a.654.654 0 0 0 .206-.48h.011a.703.703 0 0 0-.206-.491L12.87 2.005a.688.688 0 0 0-.982 0L7.797 6.108a.676.676 0 0 0 0 .971zm-5.795 5.794 4.091 4.091a.676.676 0 0 0 .971 0l4.091-4.091a.665.665 0 0 0 .205-.491h.011a.683.683 0 0 0-.206-.491L7.074 7.799a.676.676 0 0 0-.972 0l-4.103 4.103a.676.676 0 0 0 0 .971zm7.924 10.005 2.699 2.701 11.013-14.903-.749-.749L9.926 22.877z"/>
      <path d="m13.511.472 8.602 8.613.091-.091a.982.982 0 0 1 1.354-.015l.998.998c.349.349.36.88.095 1.25l-.005.008-.163.219 7.04 7.04a1.593 1.593 0 0 1 0 2.263L20.746 31.534a1.593 1.593 0 0 1-2.263 0l-5.082-5.082a.952.952 0 0 1-.7.362.964.964 0 0 1-.736-.282l-2.971-2.971a.98.98 0 0 1-.015-1.354l.007-.008.088-.087L.472 13.51a1.593 1.593 0 0 1 0-2.263L11.249.47a1.593 1.593 0 0 1 2.263 0v.001zm7.522 9.691-2.007-2.006a.676.676 0 0 0-.972 0l-4.091 4.091a.686.686 0 0 0-.204.491.694.694 0 0 0 .204.491l1.999 1.999.697-.697-1.789-1.789 3.669-3.68 1.793 1.799.701-.701zm-5.801 5.797-2.005-2.005a.676.676 0 0 0-.972 0l-4.103 4.103a.676.676 0 0 0 0 .971l2.002 2.002.704-.704-1.794-1.787 3.68-3.669 1.787 1.786.699-.698zM7.797 7.078l4.091 4.091a.667.667 0 0 0 .971-.011l4.091-4.091a.654.654 0 0 0 .206-.48h.011a.703.703 0 0 0-.206-.491L12.87 2.005a.688.688 0 0 0-.982 0L7.797 6.108a.676.676 0 0 0 0 .971zm-5.795 5.794 4.091 4.091a.676.676 0 0 0 .971 0l4.091-4.091a.665.665 0 0 0 .205-.491h.011a.683.683 0 0 0-.206-.491L7.074 7.799a.676.676 0 0 0-.972 0l-4.103 4.103a.676.676 0 0 0 0 .971zm7.924 10.005 2.699 2.701 11.013-14.903-.749-.749L9.926 22.877z"/>
    </symbol>
    <symbol id="icon-scroll-down" viewBox="0 0 56 32">
      <path d="M30.603 21.134A3.675 3.675 0 0 1 28 22.219a3.67 3.67 0 0 1-2.603-1.085L8.604 4.304a3.675 3.675 0 0 0-2.603-1.085 3.67 3.67 0 0 0-2.603 6.255l16.83 16.83a10.998 10.998 0 0 0 15.546 0l16.83-16.83a3.669 3.669 0 0 0 .791-3.975A3.659 3.659 0 0 0 51.41 3.5a3.655 3.655 0 0 0-2.82 0 3.659 3.659 0 0 0-1.193.803l-16.793 16.83z"/>
    </symbol>
    <symbol id="icon-instagram" viewBox="0 0 24 24">
      <path d="M7 1c-1.657 0-3.158.673-4.243 1.757S1 5.343 1 7v10c0 1.657.673 3.158 1.757 4.243S5.343 23 7 23h10c1.657 0 3.158-.673 4.243-1.757S23 18.657 23 17V7c0-1.657-.673-3.158-1.757-4.243S18.657 1 17 1zm0 2h10c1.105 0 2.103.447 2.828 1.172S21 5.895 21 7v10c0 1.105-.447 2.103-1.172 2.828S18.105 21 17 21H7c-1.105 0-2.103-.447-2.828-1.172S3 18.105 3 17V7c0-1.105.447-2.103 1.172-2.828S5.895 3 7 3zm9.989 8.223a5.054 5.054 0 0 0-1.194-2.567 4.962 4.962 0 0 0-3.009-1.644 4.904 4.904 0 0 0-1.477-.002c-1.366.202-2.521.941-3.282 1.967s-1.133 2.347-.93 3.712.941 2.521 1.967 3.282 2.347 1.133 3.712.93 2.521-.941 3.282-1.967 1.133-2.347.93-3.712zm-1.978.294c.122.82-.1 1.609-.558 2.227s-1.15 1.059-1.969 1.18-1.609-.1-2.227-.558-1.059-1.15-1.18-1.969.1-1.609.558-2.227 1.15-1.059 1.969-1.18a2.976 2.976 0 0 1 2.688.984c.375.428.63.963.72 1.543zM17.5 7.5a1 1 0 1 0 0-2 1 1 0 0 0 0 2z"/>
    </symbol>
    <symbol id="icon-facebook" viewBox="0 0 24 24">
      <path d="M17 3v2h-2c-.552 0-1.053.225-1.414.586S13 6.448 13 7v3a1 1 0 0 0 1 1h2.719l-.5 2H14a1 1 0 0 0-1 1v7h-2v-7a1 1 0 0 0-1-1H8v-2h2a1 1 0 0 0 1-1V7c0-1.105.447-2.103 1.172-2.828S13.895 3 15 3zm1-2h-3c-1.657 0-3.158.673-4.243 1.757S9 5.343 9 7v2H7a1 1 0 0 0-1 1v4a1 1 0 0 0 1 1h2v7a1 1 0 0 0 1 1h4a1 1 0 0 0 1-1v-7h2c.466 0 .858-.319.97-.757l1-4A1 1 0 0 0 18 9h-3V7h3a1 1 0 0 0 1-1V2a1 1 0 0 0-1-1z"/>
    </symbol>
    <symbol id="icon-phone" viewBox="0 0 32 32">
      <path stroke-linejoin="round" stroke-linecap="round" stroke-width="2.667" d="M29.333 22.56v4a2.655 2.655 0 0 1-1.812 2.537 2.672 2.672 0 0 1-1.094.13 26.398 26.398 0 0 1-11.507-4.093 25.999 25.999 0 0 1-8-8 26.382 26.382 0 0 1-4.093-11.56 2.657 2.657 0 0 1 .687-2.038 2.664 2.664 0 0 1 1.967-.868h4a2.67 2.67 0 0 1 2.667 2.294 17.16 17.16 0 0 0 .933 3.747 2.675 2.675 0 0 1-.6 2.814l-1.693 1.693a21.333 21.333 0 0 0 8 8l1.693-1.693a2.666 2.666 0 0 1 2.814-.6c1.21.451 2.467.765 3.747.933a2.665 2.665 0 0 1 2.293 2.707z"/>
    </symbol>
    <symbol id="icon-mail" viewBox="0 0 32 32">
      <path stroke-linejoin="round" stroke-linecap="round" stroke-width="2.667" d="M5.333 5.333h21.333c1.467 0 2.667 1.2 2.667 2.667v16c0 1.467-1.2 2.667-2.667 2.667H5.333A2.675 2.675 0 0 1 2.666 24V8c0-1.467 1.2-2.667 2.667-2.667z"/>
      <path stroke-linejoin="round" stroke-linecap="round" stroke-width="2.667" d="M29.333 8 16 17.333 2.667 8"/>
    </symbol>
    <symbol id="icon-user" viewBox="0 0 32 32">
      <path stroke-linejoin="round" stroke-linecap="round" stroke-width="2.667" d="M26.667 28v-2.667A5.332 5.332 0 0 0 21.334 20H10.667a5.332 5.332 0 0 0-5.333 5.333V28M16 14.667A5.333 5.333 0 1 0 16 4a5.333 5.333 0 0 0 0 10.667z"/>
    </symbol>
    <symbol id="icon-close-btn" viewBox="0 0 32 32">
      <path stroke-linejoin="round" stroke-linecap="round" stroke-width="2.286" d="M24 8 8 24M8 8l16 16"/>
    </symbol>
    <symbol id="check" viewBox="0 0 32 32">
      <path d="M12.636 31.213c1.395 0 2.449-0.536 3.163-1.607l15.448-23.28c0.257-0.379 0.446-0.753 0.569-1.121 0.123-0.379 0.184-0.742 0.184-1.088 0-0.96-0.335-1.752-1.004-2.377-0.658-0.636-1.473-0.954-2.444-0.954-0.669 0-1.238 0.134-1.707 0.402-0.457 0.257-0.893 0.703-1.305 1.339l-12.971 20.368-6.494-7.782c-0.703-0.815-1.584-1.222-2.644-1.222-0.993 0-1.813 0.318-2.46 0.954s-0.971 1.434-0.971 2.393c0 0.435 0.067 0.848 0.201 1.238 0.145 0.379 0.407 0.775 0.787 1.188l8.619 10.159c0.792 0.926 1.802 1.389 3.029 1.389z"></path>
    </symbol>
  </defs>
</svg>